<?xml version="1.0" encoding="UTF-8"?>
<svg id="Layer_1" xmlns="http://www.w3.org/2000/svg" version="1.1" viewBox="0 0 360 360">
  <!-- Generator: Adobe Illustrator 29.7.1, SVG Export Plug-In . SVG Version: 2.1.1 Build 8)  -->
  <g id="r0t7kC">
    <g>
      <path d="M93.161,42.128c65.609,1.492,128.905-14.176,176.191,42.251,62.166,74.182,1.834,194.025-93.506,187.506-25.251-1.726-41.341-28.024-25.9-49.972,12.041-17.115,28.632-9.531,45.646-14.354,43.196-12.244,51.899-71.587,14.112-95.532-25.767-16.328-87.83-4.574-119.825-8.175-31.264-3.518-35.326-57.078,3.282-61.724Z" fill="#f37547"/>
      <path d="M89.123,126.088c19.063-2.996,33.836,9.77,36.25,28.27-3.179,43.439,4.335,93.165-.113,135.868-3.825,36.72-54.042,38.696-59.883,2.129l.117-140.895c1.366-11.429,12.078-23.556,23.629-25.371Z" fill="#fff"/>
    </g>
  </g>
</svg>