<?xml version="1.0" encoding="UTF-8"?>
<svg xmlns="http://www.w3.org/2000/svg" version="1.1" xmlns:xlink="http://www.w3.org/1999/xlink" viewBox="0 0 219 226.3">
  <defs>
    <style>
      .cls-1 {
        fill: #fff;
      }

      .cls-2 {
        fill: #606161;
      }

      .cls-3 {
        fill: #4274b9;
      }
    </style>
  </defs>
  <!-- Generator: Adobe Illustrator 28.7.10, SVG Export Plug-In . SVG Version: 1.2.0 Build 236)  -->
  <g>
    <g id="Layer_1">
      <rect x="874.5" y="-83.8" width="328.7" height="328.7" rx="96.6" ry="96.6"/>
      <path class="cls-1" d="M-649.3,464.8c0-21.8,0-43.7,0-65.5,0-17.4,12.5-30.5,28.9-30.7,16.7-.2,30.3,12.6,30.5,29.8.4,43.8.4,103.3,0,147.2-.1,18.1-13.7,31.6-30.1,31.4-15.9-.2-29-13.1-29.2-29.5-.2-22.3,0-60.4,0-82.7h0Z"/>
      <circle cx="539.4" cy="112.1" r="184.5"/>
      <g>
        <path class="cls-2" d="M516.4,54.1c-10.3,3-74.5,21.3-84.8,24.2-14.3,4-27-1.9-31.4-14.6-4.7-13.9,1-27,15.7-31.6,24.9-7.8,103.8-31.1,129.3-36.3,40.1-8.2,82.2,16.1,98,53.6,20.2,48.2-2.4,99.8-47.9,120-6.5,2.9-13.9,4.9-21,5.3-12.4.7-22.7-8.5-24.2-20.2-1.8-13.5,4.5-23.7,17.5-27.2,15-3.9,26.1-12.3,32-26.7,8.9-22-3.7-49.8-27.1-56.4-8.6-2.4-17.8-1.3-26.5.9-10,2.6-19.8,5.9-29.7,8.7,0,0,0,0,0,0Z"/>
        <path class="cls-2" d="M481.9,162c-4.8-16.7-9.6-33.4-14.3-50.2-3.8-13.3,2.9-26.1,15.4-29.8,12.7-3.8,26,3,29.9,16.2,9.9,33.5,22.9,79.1,32.3,112.7,3.9,13.9-3.6,27.2-16.2,30.7-12.3,3.3-25.1-3.7-28.8-16.2-5.1-17-13.3-46.2-18.1-63.3h0Z"/>
      </g>
      <circle cx="539.4" cy="112.1" r="184.5"/>
      <g>
        <path class="cls-2" d="M516.4,54.1c-10.3,3-74.5,21.3-84.8,24.2-14.3,4-27-1.9-31.4-14.6-4.7-13.9,1-27,15.7-31.6,24.9-7.8,103.8-31.1,129.3-36.3,40.1-8.2,82.2,16.1,98,53.6,20.2,48.2-2.4,99.8-47.9,120-6.5,2.9-13.9,4.9-21,5.3-12.4.7-22.7-8.5-24.2-20.2-1.8-13.5,4.5-23.7,17.5-27.2,15-3.9,26.1-12.3,32-26.7,8.9-22-3.7-49.8-27.1-56.4-8.6-2.4-17.8-1.3-26.5.9-10,2.6-19.8,5.9-29.7,8.7,0,0,0,0,0,0Z"/>
        <path class="cls-2" d="M481.9,162c-4.8-16.7-9.6-33.4-14.3-50.2-3.8-13.3,2.9-26.1,15.4-29.8,12.7-3.8,26,3,29.9,16.2,9.9,33.5,22.9,79.1,32.3,112.7,3.9,13.9-3.6,27.2-16.2,30.7-12.3,3.3-25.1-3.7-28.8-16.2-5.1-17-13.3-46.2-18.1-63.3h0Z"/>
      </g>
      <circle cx="539.4" cy="112.1" r="184.5"/>
      <g>
        <path class="cls-2" d="M516.4,54.1c-10.3,3-74.5,21.3-84.8,24.2-14.3,4-27-1.9-31.4-14.6-4.7-13.9,1-27,15.7-31.6,24.9-7.8,103.8-31.1,129.3-36.3,40.1-8.2,82.2,16.1,98,53.6,20.2,48.2-2.4,99.8-47.9,120-6.5,2.9-13.9,4.9-21,5.3-12.4.7-22.7-8.5-24.2-20.2-1.8-13.5,4.5-23.7,17.5-27.2,15-3.9,26.1-12.3,32-26.7,8.9-22-3.7-49.8-27.1-56.4-8.6-2.4-17.8-1.3-26.5.9-10,2.6-19.8,5.9-29.7,8.7,0,0,0,0,0,0Z"/>
        <path class="cls-2" d="M481.9,162c-4.8-16.7-9.6-33.4-14.3-50.2-3.8-13.3,2.9-26.1,15.4-29.8,12.7-3.8,26,3,29.9,16.2,9.9,33.5,22.9,79.1,32.3,112.7,3.9,13.9-3.6,27.2-16.2,30.7-12.3,3.3-25.1-3.7-28.8-16.2-5.1-17-13.3-46.2-18.1-63.3h0Z"/>
      </g>
      <g>
        <path class="cls-3" d="M1030.6,16.3c-10.3,3-74.5,21.3-84.8,24.2-14.3,4-27-1.9-31.4-14.6-4.7-13.9,1-27,15.7-31.6,24.9-7.8,103.8-31.1,129.3-36.3,40.1-8.2,82.2,16.1,98,53.6,20.2,48.2-2.4,99.8-47.9,120-6.5,2.9-13.9,4.9-21,5.3-12.4.7-22.7-8.5-24.2-20.2-1.8-13.5,4.5-23.7,17.5-27.2,15-3.9,26.1-12.3,32-26.7,8.9-22-3.7-49.8-27.1-56.4-8.6-2.4-17.8-1.3-26.5.9-10,2.6-19.8,5.9-29.7,8.7,0,0,0,0,0,0Z"/>
        <path class="cls-1" d="M996.2,124.3c-4.8-16.7-9.6-33.4-14.3-50.2-3.8-13.3,2.9-26.1,15.4-29.8,12.7-3.8,26,3,29.9,16.2,9.9,33.5,22.9,79.1,32.3,112.7,3.9,13.9-3.6,27.2-16.2,30.7-12.3,3.3-25.1-3.7-28.8-16.2-5.1-17-13.3-46.2-18.1-63.3h0Z"/>
      </g>
      <path class="cls-3" d="M-406.4,379.2c-6.1-50.7-48.6-94.6-99.8-98.5-32.6-2.5-135.9-1.5-168.6-.7-19.4.5-30.8,14.4-29.9,32.8.9,16.8,14.2,28.4,32.8,28.4,13.5,0,97.3,0,110.8,0h0c12.9-.1,25.9-.7,38.8-.4,11.2.3,22.7,2.1,32.3,8,26,16,31.5,53.9,13.3,77.4-9.4,12.1-21.5,18.5-35.7,20.5h-32.7c-7.4,0-13.3,6-13.3,13.3v34.9c0,7.4,6,13.3,13.3,13.3,18.4,0,36.6,1.2,54.6-3.8,55.1-15.2,90.9-68.5,84.2-125.2Z"/>
      <g>
        <path class="cls-1" d="M64.1,145.5c-2.5-13.5-5.1-27-7.6-40.4-2-10.8,4.2-20.3,14.2-22.3,10.3-2.1,20.2,4.2,22.3,14.9,5.3,27,12.3,63.8,17.2,90.9,2,11.2-4.8,21.1-15,22.9-9.9,1.7-19.4-4.7-21.5-14.8-2.8-13.8-7.1-37.3-9.7-51.1h0Z"/>
        <path class="cls-3" d="M204.2,64.3c-9.7-30.6-41-52.8-73.1-49.2-20.4,2.2-84.1,14.9-104.2,19.2-11.9,2.6-17.4,12.5-14.6,23.7,2.5,10.3,12.1,15.9,23.6,13.7,8.3-1.6,60.1-11.3,68.4-12.9h0c8-1.6,15.9-3.5,24-4.8,7-1.1,14.3-1.3,20.9,1.2,17.9,6.8,25.7,29.6,17.2,46.3-4.4,8.6-11.1,13.9-19.7,16.8l-20.2,3.8c-4.5.9-7.5,5.2-6.7,9.8l4.1,21.6c.9,4.5,5.2,7.5,9.8,6.7,11.4-2.1,22.7-3.5,33.3-8.7,32.3-15.8,48.2-52.9,37.4-87.1"/>
      </g>
      <image width="1312" height="736" transform="translate(86.9 -804.1)" xlink:href="PD_Logo2-1.png"/>
      <image width="1312" height="736" transform="translate(1514.1 -662)" xlink:href="PD_Logo2-2.png"/>
      <image width="1312" height="736" transform="translate(-1623 -928.2)" xlink:href="PD_Logo2-3.png"/>
    </g>
  </g>
</svg>
